<svg
  xmlns="http://www.w3.org/2000/svg"
  x="0px"
  y="0px"
  width="64"
  height="64"
  viewBox="0 0 172 172"
  style=" fill:#000000;"
>
  <g
    fill="none"
    fill-rule="nonzero"
    stroke="none"
    stroke-width="1"
    stroke-linecap="butt"
    stroke-linejoin="miter"
    stroke-miterlimit="10"
    stroke-dasharray=""
    stroke-dashoffset="0"
    font-family="none"
    font-weight="none"
    font-size="none"
    text-anchor="none"
    style="mix-blend-mode: normal"
  >
    <path d="M0,172v-172h172v172z" fill="none"></path>
    <g>
      <path
        d="M159.90625,166.625l-50.92813,-90.3c-3.62812,-6.31563 -12.76562,-6.31563 -16.39375,0l-29.96562,53.34688l-7.39062,-13.03437c-3.62812,-6.31563 -12.76562,-6.31563 -16.39375,0l-28.08437,49.9875h31.04063l-1.47812,2.6875z"
        fill="#ffffff"
      ></path>
      <path
        d="M45.6875,40.3125c-22.26398,0 -40.3125,18.04852 -40.3125,40.3125c0,22.26398 18.04852,40.3125 40.3125,40.3125c22.26398,0 40.3125,-18.04852 40.3125,-40.3125c0,-22.26398 -18.04852,-40.3125 -40.3125,-40.3125z"
        fill="#ffffff"
      ></path>
      <path
        d="M11.42188,170.65625c-0.67187,0 -1.34375,-0.13438 -2.01562,-0.5375c-1.88125,-1.075 -2.6875,-3.49375 -1.47812,-5.50938l27.4125,-48.64375c2.41875,-4.3 6.85313,-6.85313 11.69063,-6.85313c4.8375,0 9.27188,2.55313 11.69063,6.85313c1.075,1.88125 0.40312,4.43437 -1.47813,5.50937c-1.88125,1.075 -4.43437,0.40312 -5.50937,-1.47812c-0.94063,-1.74688 -2.6875,-2.6875 -4.70312,-2.6875c-2.01562,0 -3.7625,1.075 -4.70312,2.6875l-27.4125,48.64375c-0.80625,1.34375 -2.15,2.01563 -3.49375,2.01563z"
        fill="#444b54"
      ></path>
      <path
        d="M166.625,162.59375h-4.3l-49.71875,-88.28437c-2.41875,-4.3 -6.85313,-6.85313 -11.69063,-6.85313c-4.8375,0 -9.27188,2.55312 -11.69062,6.85313l-40.17812,71.4875c-1.075,1.88125 -0.40312,4.43437 1.47812,5.50938c1.88125,1.075 4.43437,0.40312 5.50938,-1.47813l40.17812,-71.4875c0.94063,-1.74688 2.6875,-2.6875 4.70313,-2.6875c2.01563,0 3.7625,1.075 4.70313,2.6875l7.39063,13.16875c-3.7625,1.74688 -7.92813,2.55313 -12.09375,2.55313c-2.28437,0 -4.03125,1.74688 -4.03125,4.03125c0,2.28437 1.74688,4.03125 4.03125,4.03125c5.64375,0 11.01875,-1.20938 16.125,-3.62812l36.14688,64.09688h-120.9375c-2.28438,0 -4.03125,1.74687 -4.03125,4.03125c0,2.28438 1.74687,4.03125 4.03125,4.03125h134.375c2.28438,0 4.03125,-1.74687 4.03125,-4.03125c0,-2.28438 -1.74687,-4.03125 -4.03125,-4.03125z"
        fill="#444b54"
      ></path>
      <path
        d="M18.67813,114.4875c-0.94063,0 -1.88125,-0.40312 -2.6875,-1.075c-9.27187,-8.33125 -14.64687,-20.29063 -14.64687,-32.7875c0,-24.45625 19.8875,-44.34375 44.34375,-44.34375c15.99063,0 30.77187,8.6 38.56562,22.44063c1.075,1.88125 0.40313,4.43437 -1.47812,5.50937c-1.88125,1.075 -4.43438,0.40313 -5.50938,-1.47812c-6.45,-11.42187 -18.54375,-18.40938 -31.57812,-18.40938c-20.02187,0 -36.28125,16.25937 -36.28125,36.28125c0,10.2125 4.3,20.02188 11.95938,26.875c1.6125,1.47812 1.74687,4.03125 0.26875,5.64375c-0.80625,0.94063 -1.88125,1.34375 -2.95625,1.34375z"
        fill="#34495e"
      ></path>
    </g>
  </g>
</svg>