<svg
      xmlns="http://www.w3.org/2000/svg"
      x="0px"
      y="0px"
      width="64"
      height="64"
      viewBox="0 0 172 172"
      style=" fill:#000000;"
    >
      <defs>
        <linearGradient
          x1="86"
          y1="55.58583"
          x2="86"
          y2="88.21799"
          gradientUnits="userSpaceOnUse"
          id="color-1_77111_gr1"
        >
          <stop offset="0" stop-color="#d9f7ee"></stop>
          <stop offset="1" stop-color="#2df19b"></stop>
        </linearGradient>
        <linearGradient
          x1="48.375"
          y1="55.58583"
          x2="48.375"
          y2="88.21799"
          gradientUnits="userSpaceOnUse"
          id="color-2_77111_gr2"
        >
          <stop offset="0" stop-color="#d9f7ee"></stop>
          <stop offset="1" stop-color="#2df19b"></stop>
        </linearGradient>
        <linearGradient
          x1="123.625"
          y1="55.58583"
          x2="123.625"
          y2="88.21799"
          gradientUnits="userSpaceOnUse"
          id="color-3_77111_gr3"
        >
          <stop offset="0" stop-color="#d9f7ee"></stop>
          <stop offset="1" stop-color="#2df19b"></stop>
        </linearGradient>
        <linearGradient
          x1="99.16875"
          y1="52.1375"
          x2="99.16875"
          y2="135.96788"
          gradientUnits="userSpaceOnUse"
          id="color-4_77111_gr4"
        >
          <stop offset="0" stop-color="#7de3c3"></stop>
          <stop offset="1" stop-color="#0ba360"></stop>
        </linearGradient>
        <linearGradient
          x1="69.06875"
          y1="52.1375"
          x2="69.06875"
          y2="135.96788"
          gradientUnits="userSpaceOnUse"
          id="color-5_77111_gr5"
        >
          <stop offset="0" stop-color="#7de3c3"></stop>
          <stop offset="1" stop-color="#0ba360"></stop>
        </linearGradient>
        <linearGradient
          x1="86"
          y1="52.1375"
          x2="86"
          y2="135.96788"
          gradientUnits="userSpaceOnUse"
          id="color-6_77111_gr6"
        >
          <stop offset="0" stop-color="#7de3c3"></stop>
          <stop offset="1" stop-color="#0ba360"></stop>
        </linearGradient>
        <linearGradient
          x1="55.9"
          y1="44.29833"
          x2="55.9"
          y2="49.08047"
          gradientUnits="userSpaceOnUse"
          id="color-7_77111_gr7"
        >
          <stop offset="0" stop-color="#d9f7ee"></stop>
          <stop offset="1" stop-color="#2df19b"></stop>
        </linearGradient>
        <linearGradient
          x1="67.1875"
          y1="44.29833"
          x2="67.1875"
          y2="49.08047"
          gradientUnits="userSpaceOnUse"
          id="color-8_77111_gr8"
        >
          <stop offset="0" stop-color="#d9f7ee"></stop>
          <stop offset="1" stop-color="#2df19b"></stop>
        </linearGradient>
        <linearGradient
          x1="78.475"
          y1="44.29833"
          x2="78.475"
          y2="49.08047"
          gradientUnits="userSpaceOnUse"
          id="color-9_77111_gr9"
        >
          <stop offset="0" stop-color="#d9f7ee"></stop>
          <stop offset="1" stop-color="#2df19b"></stop>
        </linearGradient>
        <linearGradient
          x1="86"
          y1="61.21641"
          x2="86"
          y2="34.51771"
          gradientUnits="userSpaceOnUse"
          id="color-10_77111_gr10"
        >
          <stop offset="0" stop-color="#7de3c3"></stop>
          <stop offset="1" stop-color="#0ba360"></stop>
        </linearGradient>
      </defs>
      <g
        fill="none"
        fill-rule="nonzero"
        stroke="none"
        stroke-width="1"
        stroke-linecap="butt"
        stroke-linejoin="miter"
        stroke-miterlimit="10"
        stroke-dasharray=""
        stroke-dashoffset="0"
        font-family="none"
        font-weight="none"
        font-size="none"
        text-anchor="none"
        style="mix-blend-mode: normal"
      >
        <path d="M0,172v-172h172v172z" fill="none"></path>
        <path
          d="M86,168.56c-45.59663,0 -82.56,-36.96337 -82.56,-82.56v0c0,-45.59663 36.96337,-82.56 82.56,-82.56v0c45.59663,0 82.56,36.96337 82.56,82.56v0c0,45.59663 -36.96337,82.56 -82.56,82.56z"
          fill="#ecf0f1"
        ></path>
        <g>
          <path
            d="M95.40625,54.01875v24.45625c0,5.19413 -4.21212,9.40625 -9.40625,9.40625c-5.19413,0 -9.40625,-4.21212 -9.40625,-9.40625v-3.7625v-20.69375z"
            fill="url(#color-1_77111_gr1)"
          ></path>
          <path
            d="M57.78125,54.01875h-4.56203c-2.9498,0 -5.6287,1.72511 -6.84963,4.40965l-6.05198,13.31361c-0.88795,1.9565 -1.34886,4.08231 -1.34886,6.2307v0.09783c0,4.55074 3.04386,8.75346 7.50995,9.62448c6.02564,1.17766 11.30255,-3.40506 11.30255,-9.22001z"
            fill="url(#color-2_77111_gr2)"
          ></path>
          <path
            d="M114.21875,78.475c0,5.49889 4.72006,9.89726 10.32994,9.36298c4.89125,-0.46655 8.48256,-4.85363 8.48256,-9.76557v-0.09783c0,-2.15027 -0.46091,-4.2742 -1.34886,-6.23258l-6.05198,-13.31361c-1.22093,-2.68454 -3.89983,-4.40965 -6.84963,-4.40965h-4.56203z"
            fill="url(#color-3_77111_gr3)"
          ></path>
          <path d="M97.2875,116.1h3.7625v7.525h-3.7625z" fill="url(#color-4_77111_gr4)"></path>
          <path
            d="M86,116.1v-15.05c0,-2.07502 -1.68748,-3.7625 -3.7625,-3.7625h-26.3375c-2.07502,0 -3.7625,1.68748 -3.7625,3.7625v15.05c0,2.07502 1.68748,3.7625 3.7625,3.7625h26.3375c2.07502,0 3.7625,-1.68748 3.7625,-3.7625zM82.2375,116.1h-26.3375v-15.05h26.3375z"
            fill="url(#color-5_77111_gr5)"
          ></path>
          <path
            d="M44.95865,131.15h-7.87115v3.7625h13.16875h39.50625h22.575h9.40625h13.16875v-3.7625h-7.87115c0.2107,-0.59071 0.34615,-1.21905 0.34615,-1.88125v-40.17974c4.37955,-1.61411 7.525,-6.00495 7.525,-11.01848c0,-2.53404 -0.50982,-4.89125 -1.51817,-7.10548l-6.05198,-13.31361c-1.52193,-3.35051 -4.88184,-5.51394 -8.56157,-5.51394h-4.56203h-1.88125h-15.05h-22.575h-15.05h-1.88125h-4.56203c-3.67973,0 -7.03964,2.16344 -8.55969,5.51394l-6.05198,13.31172c-1.01023,2.21423 -1.52005,4.57144 -1.52005,7.00954c0,5.15274 3.09089,9.54923 7.525,11.12571v34.52658v3.7625v1.88125c0,0.6622 0.13545,1.29054 0.34615,1.88125zM93.525,101.05h15.05v3.7625h-15.05zM89.7625,101.05v22.575h-41.3875v-33.86438c2.61117,-0.00564 5.13957,-0.89359 7.17132,-2.56791c0.87854,-0.72428 1.61976,-1.57273 2.23304,-2.49642c2.02234,3.04951 5.48196,5.06621 9.40813,5.06621c3.92429,0 7.38391,-2.01294 9.40625,-5.06056c2.02234,3.04574 5.48196,5.06056 9.40625,5.06056c3.92429,0 7.38391,-2.01294 9.40625,-5.06056c2.02234,3.04574 5.48196,5.06056 9.40625,5.06056c3.92805,0 7.38767,-2.01858 9.41189,-5.06809c0.5117,0.77508 1.10994,1.49936 1.80976,2.13522c2.07502,1.88501 4.79343,2.92346 7.59084,2.92911v33.86626h-11.2875v-22.575c0,-2.07502 -1.68748,-3.7625 -3.7625,-3.7625h-15.05c-2.07502,0 -3.7625,1.68748 -3.7625,3.7625zM49.58841,55.9h6.31159v22.31915c0,2.01106 -0.68289,4.01082 -2.08443,5.45562c-1.84739,1.90571 -4.37391,2.68643 -6.97568,2.17284c-3.47091,-0.67725 -5.9899,-3.94874 -5.9899,-7.77709c0,-1.99224 0.39694,-3.82646 1.18143,-5.54781zM74.7125,55.9v22.575c0,4.15004 -3.37496,7.525 -7.525,7.525c-4.15004,0 -7.525,-3.37496 -7.525,-7.525v-22.575zM78.475,55.9h15.05v22.575c0,4.15004 -3.37496,7.525 -7.525,7.525c-4.15004,0 -7.525,-3.37496 -7.525,-7.525zM112.3375,55.9v22.575c0,4.15004 -3.37496,7.525 -7.525,7.525c-4.15004,0 -7.525,-3.37496 -7.525,-7.525v-22.575zM124.37186,85.96614c-2.45879,0.22575 -4.78778,-0.68289 -6.4414,-2.56603c-1.24163,-1.41282 -1.83046,-3.29031 -1.83046,-5.17156v-22.32856h6.31347l7.5551,16.62272c0.78448,1.72134 1.18142,3.55368 1.18142,5.44998c0,4.16133 -2.97802,7.62847 -6.77814,7.99343zM112.3375,131.15v-3.7625h11.2875v1.88125c0,1.03845 -0.8428,1.88125 -1.88125,1.88125zM93.525,131.15v-22.575h15.05v22.575zM50.25625,131.15c-1.03845,0 -1.88125,-0.8428 -1.88125,-1.88125v-1.88125h41.3875v3.7625z"
            fill="url(#color-6_77111_gr6)"
          ></path>
          <path d="M52.1375,44.6125h7.525v3.7625h-7.525z" fill="url(#color-7_77111_gr7)"></path>
          <path d="M63.425,44.6125h7.525v3.7625h-7.525z" fill="url(#color-8_77111_gr8)"></path>
          <path d="M74.7125,44.6125h7.525v3.7625h-7.525z" fill="url(#color-9_77111_gr9)"></path>
          <path
            d="M48.375,55.9h75.25l3.7625,5.17344v-18.34219c0,-3.11159 -2.53216,-5.64375 -5.64375,-5.64375h-71.4875c-3.11159,0 -5.64375,2.53216 -5.64375,5.64375v18.34219zM112.3375,40.85h9.40625c1.03845,0 1.88125,0.8428 1.88125,1.88125v9.40625h-11.2875zM48.375,42.73125c0,-1.03845 0.8428,-1.88125 1.88125,-1.88125h58.31875v11.2875h-60.2z"
            fill="url(#color-10_77111_gr10)"
          ></path>
        </g>
      </g>
    </svg>